<svg viewBox="0 0 24 24" fill="none" xmlns="http://www.w3.org/2000/svg" id="Smile-Square--Streamline-Solar-Ar" height="24" width="24">
  <desc>
    Smile Square Streamline Icon: https://streamlinehq.com
  </desc>
  <path d="M9 16c0.85038 0.6303 1.8846 1 3 1s2.1496 -0.3697 3 -1" stroke="#9595b5" stroke-linecap="round" stroke-width="1.5"></path>
  <path fill="#9595b5" d="M14 10.5a1 1.5 0 1 0 2 0 1 1.5 0 1 0 -2 0" stroke-width="1.5"></path>
  <path fill="#9595b5" d="M8 10.5a1 1.5 0 1 0 2 0 1 1.5 0 1 0 -2 0" stroke-width="1.5"></path>
  <path d="M2 12c0 -4.71405 0 -7.07107 1.46447 -8.53553C4.92893 2 7.28595 2 12 2c4.714 0 7.0711 0 8.5355 1.46447C22 4.92893 22 7.28595 22 12c0 4.714 0 7.0711 -1.4645 8.5355C19.0711 22 16.714 22 12 22c-4.71405 0 -7.07107 0 -8.53553 -1.4645C2 19.0711 2 16.714 2 12Z" stroke="#9595b5" stroke-width="1.5"></path>
</svg>