<svg viewBox="0 0 24 24" fill="none" xmlns="http://www.w3.org/2000/svg" id="User-Heart-Rounded--Streamline-Solar-Ar" height="24" width="24">
  <desc>
    User Heart Rounded Streamline Icon: https://streamlinehq.com
  </desc>
  <path stroke="#9595b5" d="M5 6a4 4 0 1 0 8 0 4 4 0 1 0 -8 0" stroke-width="1.5"></path>
  <path stroke="#9595b5" d="M2 17a7 4 0 1 0 14 0 7 4 0 1 0 -14 0" stroke-width="1.5"></path>
  <path d="m17.0885 12.5385 0.455 -0.5962 -0.455 0.5962ZM18 8.64354l-0.5319 0.52878c0.1408 0.1416 0.3322 0.22122 0.5319 0.22122 0.1997 0 0.3911 -0.07962 0.5319 -0.22122L18 8.64354Zm0.9115 3.89496 -0.455 -0.5962 0.455 0.5962Zm-1.368 -0.5962c-0.4864 -0.3713 -0.9245 -0.6683 -1.2776 -1.0532 -0.3272 -0.3567 -0.5159 -0.7253 -0.5159 -1.18937h-1.5c0 0.94837 0.4142 1.66227 0.9106 2.20337 0.4705 0.513 1.0766 0.9291 1.4729 1.2316l0.91 -1.1924ZM15.75 9.69973c0 -0.41198 0.2398 -0.74504 0.5473 -0.88111 0.2662 -0.11782 0.6901 -0.12988 1.1708 0.3537l1.0638 -1.05756c-0.8692 -0.87429 -1.9454 -1.06446 -2.8416 -0.66782 -0.8551 0.37839 -1.4403 1.25235 -1.4403 2.25279h1.5Zm0.8835 3.43497c0.149 0.1136 0.3421 0.2612 0.5458 0.3764 0.2039 0.1154 0.4863 0.2389 0.8207 0.2389v-1.5c0.0344 0 0.0168 0.0115 -0.0821 -0.0444 -0.0992 -0.0561 -0.2118 -0.1393 -0.3744 -0.2633l-0.91 1.1924Zm2.733 0c0.3963 -0.3025 1.0024 -0.7186 1.4729 -1.2316 0.4964 -0.5411 0.9106 -1.255 0.9106 -2.20337h-1.5c0 0.46407 -0.1887 0.83267 -0.5159 1.18937 -0.3531 0.3849 -0.7912 0.6819 -1.2776 1.0532l0.91 1.1924ZM21.75 9.69973c0 -1.00044 -0.5852 -1.8744 -1.4403 -2.25279 -0.8962 -0.39664 -1.9724 -0.20647 -2.8416 0.66782l1.0638 1.05756c0.4807 -0.48358 0.9046 -0.47152 1.1708 -0.3537 0.3075 0.13607 0.5473 0.46913 0.5473 0.88111h1.5Zm-3.2935 2.24257c-0.1626 0.124 -0.2752 0.2072 -0.3744 0.2633 -0.0989 0.0559 -0.1165 0.0444 -0.0821 0.0444v1.5c0.3344 0 0.6168 -0.1235 0.8207 -0.2389 0.2037 -0.1152 0.3968 -0.2628 0.5458 -0.3764l-0.91 -1.1924Z" fill="#9595b5" stroke-width="1.5"></path>
</svg>