<svg viewBox="0 0 24 24" fill="none" xmlns="http://www.w3.org/2000/svg" id="Text-Square--Streamline-Solar-Ar" height="24" width="24">
  <desc>
    Text Square Streamline Icon: https://streamlinehq.com
  </desc>
  <path d="M11.25 17c0 0.4142 0.3358 0.75 0.75 0.75s0.75 -0.3358 0.75 -0.75h-1.5Zm4 -7.25c0 0.4142 0.3358 0.75 0.75 0.75s0.75 -0.3358 0.75 -0.75h-1.5Zm-8 0c0 0.4142 0.33579 0.75 0.75 0.75s0.75 -0.3358 0.75 -0.75h-1.5Zm8.4571 -2.42456 0.5575 -0.50173 -0.5575 0.50173ZM9.5 16.25c-0.41421 0 -0.75 0.3358 -0.75 0.75s0.33579 0.75 0.75 0.75v-1.5Zm5.5 1.5c0.4142 0 0.75 -0.3358 0.75 -0.75s-0.3358 -0.75 -0.75 -0.75v1.5Zm-5 -10h2v-1.5h-2v1.5Zm2 0h2v-1.5h-2v1.5Zm0.75 9.25V7h-1.5v10h1.5Zm2.5 -7.77778V9.75h1.5v-0.52778h-1.5Zm-8 0V9.75h1.5v-0.52778h-1.5ZM14 7.75c0.4949 0 0.7824 0.00196 0.9865 0.03245 0.0918 0.01372 0.1345 0.02935 0.1511 0.03695 0.0104 0.00475 0.0101 0.00563 0.012 0.00776l1.115 -1.00345c-0.3046 -0.33841 -0.6856 -0.46939 -1.0565 -0.5248C14.8676 6.24804 14.4479 6.25 14 6.25v1.5Zm2.75 1.47222c0 -0.50465 0.0013 -0.95113 -0.042 -1.30928 -0.0451 -0.37233 -0.149 -0.76212 -0.4434 -1.08923l-1.115 1.00345c0.0027 0.00299 0.0113 0.01223 0.0235 0.04505 0.0142 0.03827 0.0317 0.10504 0.0457 0.22092 0.0299 0.24698 0.0312 0.58618 0.0312 1.12909h1.5ZM10 6.25c-0.44792 0 -0.86756 -0.00196 -1.20808 0.04891 -0.3709 0.05541 -0.75192 0.18639 -1.0565 0.5248l1.11494 1.00345c0.00192 -0.00213 0.00168 -0.00301 0.01206 -0.00776 0.01662 -0.0076 0.05926 -0.02323 0.15112 -0.03695C9.21765 7.75196 9.50511 7.75 10 7.75v-1.5ZM8.75 9.22222c0 -0.54291 0.00129 -0.88211 0.03118 -1.12909 0.01402 -0.11588 0.03155 -0.18265 0.04572 -0.22092 0.01215 -0.03282 0.02077 -0.04206 0.02346 -0.04505L7.73542 6.82371c-0.29439 0.32711 -0.39832 0.7169 -0.44338 1.08923 -0.04333 0.35815 -0.04204 0.80463 -0.04204 1.30928h1.5ZM9.5 17.75H15v-1.5H9.5v1.5Z" fill="#f0f0f0" stroke-width="1.5"></path>
  <path d="M2 12c0 -4.71405 0 -7.07107 1.46447 -8.53553C4.92893 2 7.28595 2 12 2c4.714 0 7.0711 0 8.5355 1.46447C22 4.92893 22 7.28595 22 12c0 4.714 0 7.0711 -1.4645 8.5355C19.0711 22 16.714 22 12 22c-4.71405 0 -7.07107 0 -8.53553 -1.4645C2 19.0711 2 16.714 2 12Z" stroke="#f0f0f0" stroke-width="1.5"></path>
</svg>