<svg viewBox="0 0 24 24" fill="none" xmlns="http://www.w3.org/2000/svg" id="Trash-Bin-2--Streamline-Solar-Ar" height="24" width="24">
  <desc>
    Trash Bin 2 Streamline Icon: https://streamlinehq.com
  </desc>
  <path d="M20.5 6H3.49994" stroke="#f0f0f0" stroke-linecap="round" stroke-width="1.5"></path>
  <path d="m18.8334 8.5 -0.46 6.8991c-0.177 2.6549 -0.2655 3.9824 -1.1305 4.7916C16.3779 21 15.0475 21 12.3867 21h-0.7734c-2.66076 0 -3.99116 0 -4.85617 -0.8093 -0.86501 -0.8092 -0.95351 -2.1367 -1.1305 -4.7916L5.16669 8.5" stroke="#f0f0f0" stroke-linecap="round" stroke-width="1.5"></path>
  <path d="M6.5 6c0.05588 0 0.08382 0 0.10915 -0.00064 0.82344 -0.02087 1.54987 -0.54445 1.83007 -1.31904 0.00862 -0.02383 0.01745 -0.05033 0.03512 -0.10335l0.09709 -0.29126c0.08288 -0.24863 0.12432 -0.37295 0.17928 -0.47851 0.2193 -0.42113 0.62503 -0.71356 1.0939 -0.78843C9.96213 3 10.0932 3 10.3553 3h3.2894c0.2621 0 0.3932 0 0.5107 0.01877 0.4689 0.07487 0.8746 0.3673 1.0939 0.78843 0.055 0.10556 0.0964 0.22988 0.1793 0.47851l0.0971 0.29126c0.0176 0.05295 0.0265 0.07954 0.0351 0.10335 0.2802 0.77459 1.0066 1.29817 1.8301 1.31904C17.4162 6 17.4441 6 17.5 6" stroke="#f0f0f0" stroke-width="1.5"></path>
</svg>