<svg viewBox="0 0 24 24" fill="none" xmlns="http://www.w3.org/2000/svg" id="Money-Bag--Streamline-Solar-Ar" height="24" width="24">
  <desc>
    Money Bag Streamline Icon: https://streamlinehq.com
  </desc>
  <path d="M2 14c0 -3.7712 0 -5.65685 1.17157 -6.82843C4.34315 6 6.22876 6 10 6h4c3.7712 0 5.6569 0 6.8284 1.17157C22 8.34315 22 10.2288 22 14s0 5.6569 -1.1716 6.8284C19.6569 22 17.7712 22 14 22h-4c-3.77124 0 -5.65685 0 -6.82843 -1.1716C2 19.6569 2 17.7712 2 14Z" stroke="#9595b5" stroke-width="1.5"></path>
  <path d="M16 6c0 -1.88562 0 -2.82843 -0.5858 -3.41421C14.8284 2 13.8856 2 12 2c-1.8856 0 -2.82843 0 -3.41421 0.58579C8 3.17157 8 4.11438 8 6" stroke="#9595b5" stroke-width="1.5"></path>
  <path d="M12 17.3333c1.1046 0 2 -0.7462 2 -1.6666C14 14.7462 13.1046 14 12 14s-2 -0.7462 -2 -1.6667c0 -0.9204 0.8954 -1.6666 2 -1.6666m0 6.6666c-1.1046 0 -2 -0.7462 -2 -1.6666m2 1.6666V18m0 -8v0.6667m0 0c1.1046 0 2 0.7462 2 1.6666" stroke="#9595b5" stroke-linecap="round" stroke-width="1.5"></path>
</svg>