<svg viewBox="0 0 24 24" fill="none" xmlns="http://www.w3.org/2000/svg" id="Letter-Opened--Streamline-Solar-Ar" height="24" width="24">
  <desc>
    Letter Opened Streamline Icon: https://streamlinehq.com
  </desc>
  <path d="M18 6.10156c1.3001 0.12788 2.1752 0.4169 2.8284 1.07008C22 8.34322 22 10.2288 22 14.0001c0 3.7712 0 5.6568 -1.1716 6.8284 -1.1715 1.1716 -3.0572 1.1716 -6.8284 1.1716h-4c-3.77124 0 -5.65685 0 -6.82843 -1.1716C2 19.6569 2 17.7713 2 14.0001c0 -3.7713 0 -5.65688 1.17157 -6.82846C3.82475 6.51846 4.69989 6.22944 6 6.10156" stroke="#9595b5" stroke-width="1.5"></path>
  <path d="M10 6h4" stroke="#9595b5" stroke-linecap="round" stroke-width="1.5"></path>
  <path d="M11 9h2" stroke="#9595b5" stroke-linecap="round" stroke-width="1.5"></path>
  <path d="m8.1589 11.7991 -0.71964 -0.5997c-0.70774 -0.5898 -1.06162 -0.8847 -1.25044 -1.28784C6 9.50842 6 9.04778 6 8.1265V7c0 -2.35702 0 -3.53553 0.73223 -4.26777C7.46447 2 8.64298 2 11 2h2c2.357 0 3.5355 0 4.2678 0.73223C18 3.46447 18 4.64298 18 7v1.1265c0 0.92128 0 1.38192 -0.1888 1.78506 -0.1888 0.40314 -0.5427 0.69804 -1.2505 1.28784l-0.7196 0.5997c-1.8366 1.5305 -2.755 2.2958 -3.8411 2.2958s-2.00447 -0.7653 -3.8411 -2.2958Z" stroke="#9595b5" stroke-linecap="round" stroke-width="1.5"></path>
  <path d="m6 10 2.1589 1.7991c1.83663 1.5305 2.755 2.2958 3.8411 2.2958s2.0045 -0.7653 3.8411 -2.2958L18 10" stroke="#9595b5" stroke-linecap="round" stroke-width="1.5"></path>
</svg>