<svg viewBox="0 0 24 24" fill="none" xmlns="http://www.w3.org/2000/svg" id="Letter--Streamline-Solar-Ar" height="24" width="24">
  <desc>
    Letter Streamline Icon: https://streamlinehq.com
  </desc>
  <path d="M2 12c0 -3.77124 0 -5.65685 1.17157 -6.82843C4.34315 4 6.22876 4 10 4h4c3.7712 0 5.6569 0 6.8284 1.17157C22 6.34315 22 8.22876 22 12c0 3.7712 0 5.6569 -1.1716 6.8284C19.6569 20 17.7712 20 14 20h-4c-3.77124 0 -5.65685 0 -6.82843 -1.1716C2 17.6569 2 15.7712 2 12Z" stroke="#9595b5" stroke-width="1.5"></path>
  <path d="m6 8 2.1589 1.79908C9.99553 11.3296 10.9139 12.0949 12 12.0949s2.0045 -0.7653 3.8411 -2.29582L18 8" stroke="#9595b5" stroke-linecap="round" stroke-width="1.5"></path>
</svg>