<svg viewBox="-0.75 -0.75 24 24" fill="none" xmlns="http://www.w3.org/2000/svg" id="Chat-Dots--Streamline-Solar-Ar" height="24" width="24">
  <desc>
    Chat Dots Streamline Icon: https://streamlinehq.com
  </desc>
  <path d="m12.26878125 20.05096875 0.6050625 0.358125 -0.6050625 -0.358125Zm0.50821875 -0.85865625 -0.60515625 -0.358125 0.60515625 0.358125Zm-3.0540000000000003 0 -0.605071875 0.35821875 0.605071875 -0.35821875Zm0.50821875 0.85865625 0.6050625 -0.358125 -0.6050625 0.358125Zm-7.99940625 -5.13215625 0.6496031250000001 -0.2690625 -0.6496031250000001 0.2690625Zm5.07091875 2.88571875 -0.0121125 0.7029375 0.0121125 -0.7029375Zm-2.5340624999999997 -0.34884375 -0.26907187499999996 0.64959375 0.26907187499999996 -0.64959375Zm15.49951875 -2.5368749999999998 0.64959375 0.2690625 -0.64959375 -0.2690625Zm-5.070937499999999 2.88571875 -0.01209375 -0.70303125 0.01209375 0.70303125Zm2.5340624999999997 -0.34884375 0.2690625 0.64959375 -0.2690625 -0.64959375Zm0.6554062500000001 -14.8899375 -0.36740625000000005 0.5995125 0.36740625000000005 -0.5995125Zm1.54753125 1.547540625 0.59953125 -0.3673875 -0.59953125 0.3673875ZM4.113290624999999 2.56575l-0.3673875 -0.5995125 0.3673875 0.5995125ZM2.56575 4.113290624999999l-0.5995125 -0.3673875 0.5995125 0.3673875ZM8.815115624999999 18.009187500000003l0.35350312500000003 -0.6077812499999999 -0.35350312500000003 0.6077812499999999Zm4.058728125 2.39990625 0.50821875 -0.8585624999999999 -1.21021875 -0.7163437500000001 -0.50821875 0.85865625 1.21021875 0.71625Zm-3.755915625 -0.8585624999999999 0.508228125 0.8585624999999999 1.210125 -0.71625 -0.50821875 -0.85865625 -1.210134375 0.7163437500000001Zm2.545696875 0.14231249999999998c-0.18065625000000002 0.30525 -0.64659375 0.30525 -0.8273437499999999 0l-1.210125 0.71625c0.72525 1.2253125 2.5224374999999997 1.2253125 3.2476875 0l-1.21021875 -0.71625ZM9.84375 2.578125h2.8125v-1.40625h-2.8125v1.40625Zm10.078125 7.265625v0.9375h1.40625v-0.9375h-1.40625Zm-17.34375 0.9375v-0.9375h-1.40625v0.9375h1.40625Zm-1.40625 0c0 1.0824375000000002 -0.000384375 1.92946875 0.046228125 2.612625 0.047053125 0.68953125 0.1443 1.263375 0.36410625 1.794l1.2992062500000001 -0.538125c-0.13700625 -0.33075 -0.21815625 -0.7336874999999999 -0.260315625 -1.35159375C2.578509375 12.67396875 2.578125 11.882906250000001 2.578125 10.78125h-1.40625Zm6.1429687500000005 6.32025c-1.1769749999999999 -0.02034375 -1.793690625 -0.09515625000000001 -2.277103125 -0.29540625l-0.5381437499999999 1.2991875c0.7546593749999999 0.31256249999999997 1.614196875 0.3819375 2.791021875 0.4021875l0.024225 -1.40596875Zm-5.732634375 -1.913625c0.547115625 1.32084375 1.596534375 2.37028125 2.9173875000000002 2.91740625l0.538153125 -1.2991875c-0.9762843749999999 -0.4044375 -1.7519437500000001 -1.1800312499999999 -2.156334375 -2.15634375l-1.2992062500000001 0.538125ZM19.921875 10.78125c0 1.10165625 -0.000375 1.89271875 -0.0429375 2.51690625 -0.042187499999999996 0.61790625 -0.123375 1.02084375 -0.26034375 1.35159375l1.2991875 0.538125c0.21984374999999998 -0.5306249999999999 0.3170625 -1.1044687499999999 0.36412500000000003 -1.794 0.04659375 -0.68315625 0.046218749999999996 -1.5301875 0.046218749999999996 -2.612625h-1.40625Zm-4.71253125 7.726218750000001c1.1768437500000002 -0.02025 2.0364375 -0.08962500000000001 2.79103125 -0.4021875l-0.538125 -1.2991875c-0.48337499999999994 0.20025 -1.10015625 0.2750625 -2.27709375 0.29540625l0.0241875 1.40596875Zm4.40925 -3.8577187499999996c-0.4044375 0.9763125000000001 -1.1800312499999999 1.75190625 -2.15634375 2.15634375l0.538125 1.2991875c1.32084375 -0.547125 2.37028125 -1.5965625 2.91740625 -2.91740625l-1.2991875 -0.538125ZM12.65625 2.578125c1.548 0 2.6596875 0.000740625 3.52678125 0.083184375 0.8566874999999999 0.08145 1.40175 0.23765625 1.83628125 0.503953125l0.7348125000000001 -1.199025c-0.69271875 -0.424453125 -1.4784375 -0.613621875 -2.43796875 -0.7048593750000001C15.36703125 1.1711343749999998 14.1770625 1.171875 12.65625 1.171875v1.40625Zm8.671875 7.265625c0 -1.520803125 0.00075 -2.71078125 -0.08953125 -3.6598968750000003 -0.09121875 -0.959578125 -0.28040624999999997 -1.74530625 -0.7048125000000001 -2.4379500000000003l-1.1990625 0.734765625c0.26634375 0.43455937499999997 0.42253124999999997 0.9796500000000001 0.504 1.836290625 0.08240625 0.867103125 0.08315625 1.978753125 0.08315625 3.526790625h1.40625Zm-3.3088124999999997 -6.678487499999999c0.53615625 0.3285375 0.98690625 0.7792875 1.31540625 1.31540625l1.1990625 -0.734765625c-0.44446875 -0.725334375 -1.0543125 -1.335178125 -1.7796562500000002 -1.779665625l-0.7348125000000001 1.199025ZM9.84375 1.171875c-1.520803125 0 -2.71078125 -0.000740625 -3.6598968750000003 0.089503125 -0.959578125 0.0912375 -1.74530625 0.28040624999999997 -2.4379500000000003 0.7048593750000001l0.734765625 1.199025c0.43455937499999997 -0.26629687500000004 0.9796500000000001 -0.42250312500000003 1.836290625 -0.503953125C7.1840625000000005 2.5788656249999997 8.2957125 2.578125 9.84375 2.578125v-1.40625ZM2.578125 9.84375c0 -1.5480375 0.000740625 -2.6596875 0.083184375 -3.526790625 0.08145 -0.8566406249999999 0.23765625 -1.4017312499999999 0.503953125 -1.836290625l-1.199025 -0.734765625c-0.424453125 0.69264375 -0.613621875 1.478371875 -0.7048593750000001 2.4379500000000003C1.1711343749999998 7.13296875 1.171875 8.322946875 1.171875 9.84375h1.40625Zm1.1677781250000001 -7.8775125c-0.725334375 0.4444875 -1.335178125 1.05433125 -1.779665625 1.779665625l1.199025 0.734765625c0.3285375 -0.53611875 0.7792875 -0.98686875 1.31540625 -1.31540625l-0.734765625 -1.199025ZM10.3280625 18.8341875c-0.19031250000000002 -0.32156250000000003 -0.357375 -0.6053437500000001 -0.5198437499999999 -0.82828125 -0.17118750000000002 -0.23475000000000001 -0.36740625000000005 -0.44615625 -0.6396 -0.6045l-0.7070062500000001 1.2156562499999999c0.044446875000000004 0.02578125 0.105 0.07293749999999999 0.21012187499999999 0.217125 0.11378437500000001 0.1561875 0.24234375 0.37190625 0.44619375 0.7163437500000001l1.210134375 -0.7163437500000001Zm-3.03744375 -0.32671875c0.41164687499999997 0.007125 0.672384375 0.012375 0.87114375 0.0343125 0.18572812500000002 0.020624999999999998 0.25771875 0.05071875 0.29985 0.07528125l0.7070062500000001 -1.2156562499999999c-0.2744625 -0.15965625 -0.5600625 -0.22499999999999998 -0.852084375 -0.25734375000000004 -0.27898125 -0.03084375 -0.61614375 -0.03590625 -1.001690625 -0.0425625l-0.024225 1.40596875Zm6.09144375 1.0430625c0.2038125 -0.3444375 0.33234375 -0.56015625 0.44615625 -0.7163437500000001 0.10509375 -0.1441875 0.16565625 -0.19134375 0.21009375 -0.217125l-0.70696875 -1.2156562499999999c-0.27215625 0.15834375 -0.46846875 0.36974999999999997 -0.6395625 0.6045 -0.16246875 0.2229375 -0.32953125 0.50671875 -0.5199374999999999 0.82828125l1.21021875 0.7163437500000001Zm1.80309375 -2.44903125c-0.38559375 0.006656250000000001 -0.7227187500000001 0.01171875 -1.00171875 0.0425625 -0.29203125 0.032343750000000004 -0.57759375 0.0976875 -0.8520937500000001 0.25734375000000004l0.70696875 1.2156562499999999c0.042187499999999996 -0.0245625 0.11418750000000001 -0.054656249999999997 0.29990625000000004 -0.07528125 0.19874999999999998 -0.021937500000000002 0.45946875 -0.0271875 0.871125 -0.0343125l-0.0241875 -1.40596875Z" fill="#9595b5" stroke-width="1.5"></path>
  <path d="M7.5 10.3125h0.008437499999999999m3.7331250000000002 0H11.25m3.7415625 0H15" stroke="#9595b5" stroke-linecap="round" stroke-linejoin="round" stroke-width="1.5"></path>
</svg>